<?xml version="1.0" standalone="no"?>
<!DOCTYPE svg PUBLIC "-//W3C//DTD SVG 20010904//EN"
 "http://www.w3.org/TR/2001/REC-SVG-20010904/DTD/svg10.dtd">
<svg version="1.0" xmlns="http://www.w3.org/2000/svg"
 width="607.000000pt" height="607.000000pt" viewBox="0 0 607.000000 607.000000"
 preserveAspectRatio="xMidYMid meet">
<metadata>
Created by potrace 1.11, written by Peter Selinger 2001-2013
</metadata>
<g transform="translate(0.000000,607.000000) scale(0.100000,-0.100000)"
fill="#000000" stroke="none">
<path d="M2775 6064 c-633 -67 -1164 -281 -1645 -663 -122 -97 -364 -339 -461
-461 -349 -439 -562 -933 -646 -1495 -25 -171 -25 -649 0 -820 84 -562 297
-1056 646 -1495 97 -122 339 -364 461 -461 439 -349 933 -562 1495 -646 171
-25 649 -25 820 0 562 84 1056 297 1495 646 122 97 364 339 461 461 349 439
562 933 646 1495 14 94 18 183 18 410 0 227 -4 316 -18 410 -84 562 -297 1056
-646 1495 -97 122 -339 364 -461 461 -433 344 -917 556 -1465 641 -100 15
-190 21 -395 23 -146 2 -283 1 -305 -1z m3103 -2301 c76 -317 101 -572 82
-853 -26 -389 -99 -674 -245 -957 -90 -175 -141 -251 -270 -406 -287 -343
-720 -631 -1185 -787 -275 -92 -531 -130 -916 -137 -667 -12 -1099 66 -1529
277 -410 201 -715 450 -971 792 -115 154 -233 358 -298 512 l-16 38 33 -6
c328 -59 975 -90 1387 -67 891 50 1712 260 2434 623 528 265 926 552 1296 936
85 88 158 161 161 161 3 1 20 -56 37 -126z"/>
</g>
</svg>
